<mxfile host="65bd71144e">
    <diagram id="R_pgzjEuonbMSohD37CX" name="第 1 页">
        <mxGraphModel dx="988" dy="521" grid="1" gridSize="10" guides="1" tooltips="1" connect="1" arrows="1" fold="1" page="1" pageScale="1" pageWidth="827" pageHeight="1169" math="0" shadow="0">
            <root>
                <mxCell id="0"/>
                <mxCell id="1" parent="0"/>
                <mxCell id="2" value="读取config配置文件" style="rounded=0;whiteSpace=wrap;html=1;" vertex="1" parent="1">
                    <mxGeometry x="120" y="70" width="120" height="60" as="geometry"/>
                </mxCell>
                <mxCell id="3" value="pose_graph_node" style="text;html=1;align=center;verticalAlign=middle;resizable=0;points=[];autosize=1;strokeColor=none;fillColor=none;" vertex="1" parent="1">
                    <mxGeometry x="110" y="20" width="130" height="30" as="geometry"/>
                </mxCell>
                <mxCell id="4" value="" style="html=1;shadow=0;dashed=0;align=center;verticalAlign=middle;shape=mxgraph.arrows2.arrow;dy=0.6;dx=40;direction=south;notch=0;" vertex="1" parent="1">
                    <mxGeometry x="140" y="150" width="70" height="100" as="geometry"/>
                </mxCell>
                <mxCell id="5" value="读取词汇文件" style="rounded=0;whiteSpace=wrap;html=1;" vertex="1" parent="1">
                    <mxGeometry x="115" y="260" width="120" height="60" as="geometry"/>
                </mxCell>
                <mxCell id="6" value="" style="html=1;shadow=0;dashed=0;align=center;verticalAlign=middle;shape=mxgraph.arrows2.arrow;dy=0.6;dx=40;direction=south;notch=0;" vertex="1" parent="1">
                    <mxGeometry x="135" y="340" width="70" height="100" as="geometry"/>
                </mxCell>
                <mxCell id="7" value="读取相机参数生成相机对象" style="rounded=0;whiteSpace=wrap;html=1;" vertex="1" parent="1">
                    <mxGeometry x="115" y="450" width="120" height="60" as="geometry"/>
                </mxCell>
                <mxCell id="8" value="" style="html=1;shadow=0;dashed=0;align=center;verticalAlign=middle;shape=mxgraph.arrows2.arrow;dy=0.6;dx=40;direction=south;notch=0;" vertex="1" parent="1">
                    <mxGeometry x="135" y="530" width="70" height="100" as="geometry"/>
                </mxCell>
                <mxCell id="9" value="订阅传感器话题并发布" style="rounded=0;whiteSpace=wrap;html=1;" vertex="1" parent="1">
                    <mxGeometry x="115" y="640" width="120" height="60" as="geometry"/>
                </mxCell>
                <mxCell id="10" value="" style="html=1;shadow=0;dashed=0;align=center;verticalAlign=middle;shape=mxgraph.arrows2.arrow;dy=0.6;dx=40;direction=south;notch=0;" vertex="1" parent="1">
                    <mxGeometry x="135" y="720" width="70" height="100" as="geometry"/>
                </mxCell>
                <mxCell id="12" value="process线程(比较关键)" style="rounded=0;whiteSpace=wrap;html=1;" vertex="1" parent="1">
                    <mxGeometry x="110" y="830" width="120" height="60" as="geometry"/>
                </mxCell>
                <mxCell id="13" value="" style="html=1;shadow=0;dashed=0;align=center;verticalAlign=middle;shape=mxgraph.arrows2.arrow;dy=0.6;dx=40;direction=south;notch=0;" vertex="1" parent="1">
                    <mxGeometry x="130" y="900" width="70" height="100" as="geometry"/>
                </mxCell>
                <mxCell id="14" value="command线程" style="rounded=0;whiteSpace=wrap;html=1;" vertex="1" parent="1">
                    <mxGeometry x="110" y="1010" width="120" height="60" as="geometry"/>
                </mxCell>
                <mxCell id="15" value="" style="endArrow=classic;html=1;exitX=1;exitY=0.5;exitDx=0;exitDy=0;" edge="1" parent="1" source="12">
                    <mxGeometry width="50" height="50" relative="1" as="geometry">
                        <mxPoint x="300" y="970" as="sourcePoint"/>
                        <mxPoint x="330" y="70" as="targetPoint"/>
                    </mxGeometry>
                </mxCell>
                <mxCell id="16" value="处理图像，点云，姿态信息保证时间戳的一致性" style="rounded=0;whiteSpace=wrap;html=1;" vertex="1" parent="1">
                    <mxGeometry x="400" y="60" width="120" height="60" as="geometry"/>
                </mxCell>
                <mxCell id="17" value="" style="html=1;shadow=0;dashed=0;align=center;verticalAlign=middle;shape=mxgraph.arrows2.arrow;dy=0.6;dx=40;direction=south;notch=0;" vertex="1" parent="1">
                    <mxGeometry x="420" y="140" width="70" height="100" as="geometry"/>
                </mxCell>
                <mxCell id="18" value="process" style="text;html=1;align=center;verticalAlign=middle;resizable=0;points=[];autosize=1;strokeColor=none;fillColor=none;" vertex="1" parent="1">
                    <mxGeometry x="425" y="20" width="70" height="30" as="geometry"/>
                </mxCell>
                <mxCell id="19" value="进行跳帧的逻辑判断" style="rounded=0;whiteSpace=wrap;html=1;" vertex="1" parent="1">
                    <mxGeometry x="400" y="240" width="120" height="60" as="geometry"/>
                </mxCell>
                <mxCell id="20" value="" style="html=1;shadow=0;dashed=0;align=center;verticalAlign=middle;shape=mxgraph.arrows2.arrow;dy=0.6;dx=40;direction=south;notch=0;" vertex="1" parent="1">
                    <mxGeometry x="420" y="320" width="70" height="100" as="geometry"/>
                </mxCell>
                <mxCell id="21" value="单通道图像灰度图像的图像格式转换" style="rounded=0;whiteSpace=wrap;html=1;" vertex="1" parent="1">
                    <mxGeometry x="395" y="430" width="120" height="60" as="geometry"/>
                </mxCell>
                <mxCell id="22" value="" style="html=1;shadow=0;dashed=0;align=center;verticalAlign=middle;shape=mxgraph.arrows2.arrow;dy=0.6;dx=40;direction=south;notch=0;" vertex="1" parent="1">
                    <mxGeometry x="415" y="510" width="70" height="100" as="geometry"/>
                </mxCell>
                <mxCell id="23" value="保证相机的阈值大于给定阈值时才构建关键帧" style="rounded=0;whiteSpace=wrap;html=1;" vertex="1" parent="1">
                    <mxGeometry x="390" y="620" width="120" height="60" as="geometry"/>
                </mxCell>
                <mxCell id="24" value="" style="html=1;shadow=0;dashed=0;align=center;verticalAlign=middle;shape=mxgraph.arrows2.arrow;dy=0.6;dx=40;direction=south;notch=0;" vertex="1" parent="1">
                    <mxGeometry x="410" y="700" width="70" height="100" as="geometry"/>
                </mxCell>
                <mxCell id="25" value="创建关键帧" style="rounded=0;whiteSpace=wrap;html=1;" vertex="1" parent="1">
                    <mxGeometry x="390" y="810" width="120" height="60" as="geometry"/>
                </mxCell>
                <mxCell id="26" value="" style="html=1;shadow=0;dashed=0;align=center;verticalAlign=middle;shape=mxgraph.arrows2.arrow;dy=0.6;dx=40;direction=south;notch=0;" vertex="1" parent="1">
                    <mxGeometry x="410" y="890" width="70" height="100" as="geometry"/>
                </mxCell>
                <mxCell id="27" value="将关键帧添加到位姿图（addKeyFrame）" style="rounded=0;whiteSpace=wrap;html=1;" vertex="1" parent="1">
                    <mxGeometry x="385" y="1010" width="120" height="60" as="geometry"/>
                </mxCell>
                <mxCell id="28" value="" style="endArrow=classic;html=1;exitX=1.019;exitY=0.385;exitDx=0;exitDy=0;exitPerimeter=0;" edge="1" parent="1" source="27">
                    <mxGeometry width="50" height="50" relative="1" as="geometry">
                        <mxPoint x="570" y="1020" as="sourcePoint"/>
                        <mxPoint x="600" y="70" as="targetPoint"/>
                    </mxGeometry>
                </mxCell>
                <mxCell id="29" value="处理图像，点云，姿态信息保证时间戳的一致性" style="rounded=0;whiteSpace=wrap;html=1;" vertex="1" parent="1">
                    <mxGeometry x="650" y="60" width="120" height="60" as="geometry"/>
                </mxCell>
                <mxCell id="30" value="" style="html=1;shadow=0;dashed=0;align=center;verticalAlign=middle;shape=mxgraph.arrows2.arrow;dy=0.6;dx=40;direction=south;notch=0;" vertex="1" parent="1">
                    <mxGeometry x="670" y="140" width="70" height="100" as="geometry"/>
                </mxCell>
            </root>
        </mxGraphModel>
    </diagram>
</mxfile>